<?xml version="1.0" encoding="UTF-8" standalone="no"?>
<svg width="600" height="800" xmlns="http://www.w3.org/2000/svg">
  <!-- Background -->
  <rect width="600" height="800" fill="#ffffff" />
  
  <!-- Blue border -->
  <rect x="10" y="10" width="580" height="780" fill="none" stroke="#0056b3" stroke-width="2" />
  
  <!-- Header section -->
  <rect x="20" y="20" width="560" height="120" fill="#f8f9fa" />
  
  <!-- Logo and company info -->
  <text x="40" y="50" font-family="Arial" font-size="24" font-weight="bold" fill="#0056b3">TrueAminos</text>
  <text x="40" y="75" font-family="Arial" font-size="14" fill="#555">342 Cool Springs Blvd, Franklin, TN</text>
  <text x="40" y="95" font-family="Arial" font-size="14" fill="#555">Phone: 615-812-9999 | www.trueaminos.com</text>
  
  <!-- Certificate Title -->
  <rect x="40" y="150" width="520" height="50" fill="#FDDB5B" rx="5" ry="5" />
  <text x="300" y="185" font-family="Arial" font-size="22" font-weight="bold" fill="#333" text-anchor="middle">CERTIFICATE OF ANALYSIS</text>
  
  <!-- Product Information -->
  <text x="40" y="230" font-family="Arial" font-size="18" font-weight="bold" fill="#333">Product Information</text>
  <line x1="40" y1="240" x2="560" y2="240" stroke="#ddd" stroke-width="1" />
  
  <text x="40" y="270" font-family="Arial" font-size="14" fill="#333">Product Name:</text>
  <text x="200" y="270" font-family="Arial" font-size="14" font-weight="bold" fill="#333">Sermorelin Acetate</text>
  
  <text x="40" y="300" font-family="Arial" font-size="14" fill="#333">Batch Number:</text>
  <text x="200" y="300" font-family="Arial" font-size="14" fill="#333">SER-20250502-A1</text>
  
  <text x="40" y="330" font-family="Arial" font-size="14" fill="#333">Date of Manufacture:</text>
  <text x="200" y="330" font-family="Arial" font-size="14" fill="#333">May 1, 2025</text>
  
  <text x="40" y="360" font-family="Arial" font-size="14" fill="#333">Expiration Date:</text>
  <text x="200" y="360" font-family="Arial" font-size="14" fill="#333">May 1, 2027</text>
  
  <text x="40" y="390" font-family="Arial" font-size="14" fill="#333">Form:</text>
  <text x="200" y="390" font-family="Arial" font-size="14" fill="#333">Lyophilized Powder</text>
  
  <!-- Analysis Results -->
  <text x="40" y="430" font-family="Arial" font-size="18" font-weight="bold" fill="#333">Analysis Results</text>
  <line x1="40" y1="440" x2="560" y2="440" stroke="#ddd" stroke-width="1" />
  
  <!-- Table header -->
  <rect x="40" y="450" width="520" height="30" fill="#e9ecef" />
  <text x="60" y="470" font-family="Arial" font-size="14" font-weight="bold" fill="#333">Test</text>
  <text x="280" y="470" font-family="Arial" font-size="14" font-weight="bold" fill="#333">Specification</text>
  <text x="480" y="470" font-family="Arial" font-size="14" font-weight="bold" fill="#333">Result</text>
  
  <!-- Table rows -->
  <rect x="40" y="480" width="520" height="30" fill="#f8f9fa" />
  <text x="60" y="500" font-family="Arial" font-size="12" fill="#333">Appearance</text>
  <text x="280" y="500" font-family="Arial" font-size="12" fill="#333">White to off-white powder</text>
  <text x="480" y="500" font-family="Arial" font-size="12" fill="#333">White powder</text>
  
  <rect x="40" y="510" width="520" height="30" fill="#ffffff" />
  <text x="60" y="530" font-family="Arial" font-size="12" fill="#333">Purity (HPLC)</text>
  <text x="280" y="530" font-family="Arial" font-size="12" fill="#333">≥98.0%</text>
  <text x="480" y="530" font-family="Arial" font-size="12" font-weight="bold" fill="#333">99.2%</text>
  
  <rect x="40" y="540" width="520" height="30" fill="#f8f9fa" />
  <text x="60" y="560" font-family="Arial" font-size="12" fill="#333">Identity (MS)</text>
  <text x="280" y="560" font-family="Arial" font-size="12" fill="#333">Conforms to structure</text>
  <text x="480" y="560" font-family="Arial" font-size="12" fill="#333">Conforms</text>
  
  <rect x="40" y="570" width="520" height="30" fill="#ffffff" />
  <text x="60" y="590" font-family="Arial" font-size="12" fill="#333">Water Content</text>
  <text x="280" y="590" font-family="Arial" font-size="12" fill="#333">≤5.0%</text>
  <text x="480" y="590" font-family="Arial" font-size="12" fill="#333">1.8%</text>
  
  <rect x="40" y="600" width="520" height="30" fill="#f8f9fa" />
  <text x="60" y="620" font-family="Arial" font-size="12" fill="#333">Heavy Metals</text>
  <text x="280" y="620" font-family="Arial" font-size="12" fill="#333">≤10 ppm</text>
  <text x="480" y="620" font-family="Arial" font-size="12" fill="#333">＜5 ppm</text>
  
  <rect x="40" y="630" width="520" height="30" fill="#ffffff" />
  <text x="60" y="650" font-family="Arial" font-size="12" fill="#333">Microbiological Control</text>
  <text x="280" y="650" font-family="Arial" font-size="12" fill="#333">Complies</text>
  <text x="480" y="650" font-family="Arial" font-size="12" fill="#333">Complies</text>
  
  <!-- Conclusion -->
  <rect x="40" y="680" width="520" height="40" fill="#e6f4ea" rx="5" ry="5" />
  <text x="300" y="705" font-family="Arial" font-size="16" font-weight="bold" fill="#333" text-anchor="middle">RESULT: PASS ✓</text>
  
  <!-- Signature section -->
  <text x="40" y="740" font-family="Arial" font-size="14" fill="#333">Testing Laboratory: Analytical Labs LLC</text>
  <text x="40" y="760" font-family="Arial" font-size="14" fill="#333">Date of Analysis: May 2, 2025</text>
  
  <text x="380" y="740" font-family="Arial" font-size="14" fill="#333">QA Officer: Dr. Sarah Johnson</text>
  <text x="380" y="760" font-family="Arial" font-size="14" font-style="italic" fill="#333">Digitally Verified</text>
</svg>