<?xml version="1.0" encoding="UTF-8"?>
<svg width="1200" height="600" viewBox="0 0 1200 600" fill="none" xmlns="http://www.w3.org/2000/svg">
  <!-- Background with gradient -->
  <rect width="1200" height="600" fill="url(#grad)" />
  
  <!-- Brand logo -->
  <circle cx="600" cy="230" r="110" fill="white" fill-opacity="0.1" />
  <circle cx="600" cy="230" r="80" fill="white" fill-opacity="0.2" />
  <path d="M520 170H680" stroke="white" stroke-width="14" stroke-linecap="round" />
  <path d="M600 170V290" stroke="white" stroke-width="14" stroke-linecap="round" />
  
  <path d="M700 210H760" stroke="white" stroke-width="12" stroke-linecap="round" />
  <path d="M700 210L670 290" stroke="white" stroke-width="12" stroke-linecap="round" />
  <path d="M760 210L790 290" stroke="white" stroke-width="12" stroke-linecap="round" />
  
  <!-- Brand name and tagline -->
  <text x="600" y="390" font-family="Arial, sans-serif" font-size="68" font-weight="bold" fill="white" text-anchor="middle">TrueAminos</text>
  <text x="600" y="460" font-family="Arial, sans-serif" font-size="28" fill="white" text-anchor="middle">Premium Research Peptides &amp; SARMs</text>
  
  <!-- DNA Helix for peptides -->
  <path d="M470 530C510 530 510 510 550 510C590 510 590 530 630 530C670 530 670 510 710 510C750 510 750 530 790 530" stroke="white" stroke-width="8" stroke-linecap="round" />
  <path d="M470 490C510 490 510 510 550 510C590 510 590 490 630 490C670 490 670 510 710 510C750 510 750 490 790 490" stroke="white" stroke-width="8" stroke-linecap="round" />
  
  <!-- Gradient definition -->
  <defs>
    <linearGradient id="grad" x1="0" y1="0" x2="1200" y2="600" gradientUnits="userSpaceOnUse">
      <stop offset="0%" stop-color="#4169E1" />
      <stop offset="100%" stop-color="#1E3A8A" />
    </linearGradient>
  </defs>
</svg>